<?xml version="1.0" encoding="utf-8"?>
<!-- Generator: Adobe Illustrator 14.0.0, SVG Export Plug-In . SVG Version: 6.00 Build 43363)  -->
<!DOCTYPE svg PUBLIC "-//W3C//DTD SVG 1.1//EN" "http://www.w3.org/Graphics/SVG/1.1/DTD/svg11.dtd">
<svg version="1.1" id="Calque_1" xmlns="http://www.w3.org/2000/svg" xmlns:xlink="http://www.w3.org/1999/xlink" x="0px" y="0px"
	 width="96px" height="96px" viewBox="0 0 96 96" enable-background="new 0 0 96 96" xml:space="preserve">
<g>
	<g>
		<rect x="81.035" y="63.269" fill="#9B6648" width="14.868" height="3.925"/>
		<rect x="81.035" y="67.194" fill="#C1B170" width="14.868" height="10.033"/>
	</g>
	<g>
		<rect x="9.917" y="69.854" fill="#9B6648" width="74.916" height="3.926"/>
		<rect x="9.917" y="73.78" fill="#C1B170" width="74.916" height="10.033"/>
	</g>
	<g>
		<rect x="22.358" y="76.539" fill="#9B6648" width="12.125" height="3.925"/>
		<rect x="22.358" y="80.463" fill="#C1B170" width="12.125" height="10.033"/>
	</g>
	<g>
		<rect x="59.484" y="82.042" fill="#9B6648" width="14.867" height="3.925"/>
		<rect x="59.484" y="85.967" fill="#C1B170" width="14.867" height="10.033"/>
	</g>
	<g>
		<rect x="0.024" y="53.636" fill="#9B6648" width="14.867" height="3.926"/>
		<rect x="0.024" y="57.562" fill="#C1B170" width="14.867" height="10.033"/>
	</g>
	<g>
		<rect x="9.796" y="30.995" fill="#9BE08D" width="75.232" height="39.317"/>
		<rect x="81.111" y="54.454" fill="#9BE08D" width="14.889" height="9.042"/>
		<rect y="39.12" fill="#9BE08D" width="14.889" height="14.941"/>
		<rect x="22.335" y="69.395" fill="#9BE08D" width="12.146" height="7.469"/>
		<rect x="59.56" y="69" fill="#9BE08D" width="14.89" height="13.368"/>
	</g>
	<g>
		<g>
			<path opacity="0.2" d="M55.304,40.298c-2.733,0-5.28,0.257-7.472,0.698c-0.761-0.733-2.276-1.242-4.043-1.242
				c-2.529,0-4.577,1.029-4.577,2.294c0,0.78,0.776,1.465,1.958,1.88c-0.365,0.436-0.572,0.894-0.572,1.37
				c0,2.77,6.578,5.007,14.707,5.007c8.121,0,14.702-2.237,14.702-5.007C70.005,42.541,63.425,40.298,55.304,40.298z"/>
			<path fill="#725D49" d="M48.196,18.112c0,0-1.114-1.865-1.293-3.699c-0.153-1.532,0.446-2.698,0.251-3.607
				c-0.446-2.076-1.875-2.619-2.501-3.297c-0.63-0.675-2.278-3.568-2.278-3.568l0.422-0.121c0,0,0.896,1.776,2.212,3.276
				c0.475,0.541,2.059,1.105,2.772,3.624c0.319,1.126-0.248,2.278-0.063,3.705c0.183,1.43,1.458,3.406,1.458,3.406
				s-0.062,0.237-0.377,0.325C48.483,18.247,48.196,18.112,48.196,18.112z"/>
			<path fill="#725D49" d="M49.712,46.831c0,0,1.399-5.2,0.593-9.7c-0.673-3.754-2.888-6.124-3.036-8.428
				c-0.338-5.254,2.702-7.52,3.742-9.56c1.042-2.039,3.026-10.058,3.026-10.058h-1.088c0,0-0.941,4.843-3.069,9.317
				c-0.765,1.606-4.166,4.028-4.166,10.524c0,2.9,2.128,5.259,2.653,8.792c0.525,3.534-1.185,9.112-1.185,9.112
				s0.308,0.518,1.124,0.518C49.12,47.349,49.712,46.831,49.712,46.831z"/>
			<linearGradient id="SVGID_1_" gradientUnits="userSpaceOnUse" x1="56.6274" y1="2.0444" x2="56.6274" y2="21.0698">
				<stop  offset="0" style="stop-color:#96BF41"/>
				<stop  offset="0.2303" style="stop-color:#93BB3F"/>
				<stop  offset="0.4796" style="stop-color:#8BAE3A"/>
				<stop  offset="0.7378" style="stop-color:#7E9831"/>
				<stop  offset="1" style="stop-color:#6B7A24"/>
			</linearGradient>
			<path fill="url(#SVGID_1_)" d="M46.165,8.458c-1.353,1.88-5.295,6.408-2.344,10.081c2.947,3.673,8.514-0.887,11.661-1.082
				c4.413-0.274,13.364-0.973,14.633-4.662c2.55-7.413-8.117-6.575-11.438-7.527c-3.32-0.954-4.246-4.023-8.44-3.301
				C47.285,2.474,47.521,6.576,46.165,8.458z"/>
		</g>
		<g>
			<path opacity="0.2" d="M22.156,53.737c0-2.03,3.285-3.682,7.344-3.682c4.056,0,7.342,1.651,7.342,3.682
				c0,2.039-3.286,3.685-7.342,3.685C25.441,57.421,22.156,55.776,22.156,53.737z"/>
			<path fill="#725D49" d="M29.335,53.98c-1.148,0-1.589-0.683-1.589-0.683c0-1.19,1.906-10.423,1.546-12.814
				c-0.361-2.391-2.735-6.739-2.918-9.274c-0.127-1.739,0.297-5.681,0.297-5.681h0.437c0,0-0.017,4.172,0.231,5.456
				c0.564,2.914,3.09,5.92,3.612,9.203c0.521,3.283-0.232,12.977-0.232,12.977S30.483,53.98,29.335,53.98z"/>
			<linearGradient id="SVGID_2_" gradientUnits="userSpaceOnUse" x1="26.3726" y1="12.2773" x2="26.3726" y2="30.4484">
				<stop  offset="0" style="stop-color:#96BF41"/>
				<stop  offset="0.2303" style="stop-color:#93BB3F"/>
				<stop  offset="0.4796" style="stop-color:#8BAE3A"/>
				<stop  offset="0.7378" style="stop-color:#7E9831"/>
				<stop  offset="1" style="stop-color:#6B7A24"/>
			</linearGradient>
			<path fill="url(#SVGID_2_)" d="M19.338,18.23c-1.354,1.881-3.485,5.542-0.536,9.215c2.95,3.672,5.903,1.061,9.05,0.866
				c4.412-0.274,7.494-4.794,7.572-8.191s-2.224-5.576-5.543-6.529c-3.321-0.954-4.967-2.365-7.274-0.771
				C20.142,14.525,20.693,16.348,19.338,18.23z"/>
		</g>
		<g>
			<path opacity="0.2" d="M54.117,55.196c0-1.471,2.376-2.662,5.311-2.662c1.996,0,3.711,0.557,4.619,1.371
				c0.562-0.066,1.144-0.108,1.747-0.108c4.058,0,7.343,1.649,7.343,3.681c0,2.038-3.285,3.687-7.343,3.687
				c-3.831,0-6.97-1.471-7.308-3.352C56.002,57.589,54.117,56.508,54.117,55.196z"/>
			<path fill="#725D49" d="M62.981,37.99l0.406-0.682c0,0,0.123,2.495,0.222,3.008c0.175,0.901,0.525,1.611,0.982,2.567
				c0.771-2.948,2.847-5.505,3.364-8.16c0.217-1.124,0.282-5.456,0.282-5.456l0.676,0.1c0,0,0.019,3.81-0.108,5.549
				c-0.184,2.535-2.558,6.884-2.919,9.275c-0.359,2.391,1.546,11.624,1.546,12.812c0,0-0.327,0.716-1.474,0.716
				s-1.384-0.816-1.384-0.816s-0.77-8.855-0.303-12.306c-0.409-1.215-1.254-3.196-1.328-4.206
				C62.88,39.511,62.981,37.99,62.981,37.99z"/>
			
				<linearGradient id="SVGID_3_" gradientUnits="userSpaceOnUse" x1="285.7988" y1="16.0176" x2="285.7988" y2="34.1887" gradientTransform="matrix(-1 0 0 1 354.7188 0)">
				<stop  offset="0" style="stop-color:#96BF41"/>
				<stop  offset="0.2303" style="stop-color:#93BB3F"/>
				<stop  offset="0.4796" style="stop-color:#8BAE3A"/>
				<stop  offset="0.7378" style="stop-color:#7E9831"/>
				<stop  offset="1" style="stop-color:#6B7A24"/>
			</linearGradient>
			<path fill="url(#SVGID_3_)" d="M75.956,21.971c1.354,1.88,3.485,5.542,0.536,9.214c-2.951,3.673-5.904,1.062-9.052,0.866
				c-4.41-0.274-7.493-4.794-7.572-8.191c-0.078-3.397,2.226-5.577,5.545-6.529c3.32-0.954,4.965-2.365,7.271-0.771
				C75.151,18.265,74.601,20.087,75.956,21.971z"/>
			
				<linearGradient id="SVGID_4_" gradientUnits="userSpaceOnUse" x1="39.3823" y1="32.0488" x2="39.3823" y2="38.8469" gradientTransform="matrix(1 0 0 1 20.7773 0)">
				<stop  offset="0" style="stop-color:#96BF41"/>
				<stop  offset="0.2303" style="stop-color:#93BB3F"/>
				<stop  offset="0.4796" style="stop-color:#8BAE3A"/>
				<stop  offset="0.7378" style="stop-color:#7E9831"/>
				<stop  offset="1" style="stop-color:#6B7A24"/>
			</linearGradient>
			<path fill="url(#SVGID_4_)" d="M58.382,33.4c-1.406,0.743-5.121-0.631-5.109,3.083c0.007,2.206,7.75,2.016,9.343,1.916
				c2.233-0.14,4.389-1.458,4.429-3.178c0.039-1.719-0.689-1.858-2.37-2.341c-1.681-0.48-2.196-1.019-3.443-0.873
				C59.986,32.151,59.789,32.657,58.382,33.4z"/>
		</g>
		<path fill="#725D49" d="M52.097,45.888"/>
		<linearGradient id="SVGID_5_" gradientUnits="userSpaceOnUse" x1="39.5337" y1="0.0586" x2="39.5337" y2="5.9916">
			<stop  offset="0" style="stop-color:#96BF41"/>
			<stop  offset="0.2303" style="stop-color:#93BB3F"/>
			<stop  offset="0.4796" style="stop-color:#8BAE3A"/>
			<stop  offset="0.7378" style="stop-color:#7E9831"/>
			<stop  offset="1" style="stop-color:#6B7A24"/>
		</linearGradient>
		<path fill="url(#SVGID_5_)" d="M43.41,3.351c0,0.926-1.523,2.296-3.405,2.296c-1.882,0-4.348-0.336-4.348-1.896
			c0-2.167,2.466-3.75,4.348-3.75C41.887,0,43.41,1.791,43.41,3.351z"/>
		<g>
			<ellipse opacity="0.2" cx="41.053" cy="58.592" rx="3.392" ry="1.701"/>
			<path fill="#725D49" d="M40.077,58.765c0,0-0.499-0.878-0.127-2.378c0.31-1.255,0.92-1.999,1.009-2.782
				c0.198-1.79-0.677-2.693-1.057-3.461c-0.382-0.769-1.055-3.657-1.055-3.657l0.819,0.056c0,0,0.304,1.729,1.079,3.4
				c0.279,0.604,1.292,1.583,1.211,3.819c-0.036,1-0.615,1.748-0.863,2.933c-0.252,1.186,0.345,2.024,0.345,2.024
				s-0.102,0.393-0.668,0.393C40.201,59.113,40.077,58.765,40.077,58.765z"/>
			
				<linearGradient id="SVGID_6_" gradientUnits="userSpaceOnUse" x1="38.0298" y1="40.1841" x2="38.0298" y2="46.3218" gradientTransform="matrix(1 0.0039 -0.0039 1 1.3504 2.694)">
				<stop  offset="0" style="stop-color:#96BF41"/>
				<stop  offset="0.2303" style="stop-color:#93BB3F"/>
				<stop  offset="0.4796" style="stop-color:#8BAE3A"/>
				<stop  offset="0.7378" style="stop-color:#7E9831"/>
				<stop  offset="1" style="stop-color:#6B7A24"/>
			</linearGradient>
			<path fill="url(#SVGID_6_)" d="M43.222,46.445c-0.005,0.959-1.588,2.368-3.534,2.364c-1.943-0.01-4.494-0.369-4.489-1.98
				c0.01-2.243,2.567-3.868,4.512-3.861C41.658,42.975,43.227,44.832,43.222,46.445z"/>
		</g>
	</g>
</g>
</svg>
