<?xml version="1.0" encoding="utf-8"?>
<!-- Generator: Adobe Illustrator 14.0.0, SVG Export Plug-In . SVG Version: 6.00 Build 43363)  -->
<!DOCTYPE svg PUBLIC "-//W3C//DTD SVG 1.1//EN" "http://www.w3.org/Graphics/SVG/1.1/DTD/svg11.dtd">
<svg version="1.1" id="Calque_1" xmlns="http://www.w3.org/2000/svg" xmlns:xlink="http://www.w3.org/1999/xlink" x="0px" y="0px"
	 width="144px" height="144px" viewBox="0 0 144 144" enable-background="new 0 0 144 144" xml:space="preserve">
<g>
	<g>
		<rect x="121.551" y="94.902" fill="#9B6648" width="22.305" height="5.887"/>
		<rect x="121.551" y="100.789" fill="#C1B170" width="22.305" height="15.051"/>
	</g>
	<g>
		<rect x="14.875" y="104.781" fill="#9B6648" width="112.375" height="5.887"/>
		<rect x="14.875" y="110.668" fill="#C1B170" width="112.375" height="15.051"/>
	</g>
	<g>
		<rect x="33.537" y="114.805" fill="#9B6648" width="18.186" height="5.891"/>
		<rect x="33.537" y="120.695" fill="#C1B170" width="18.186" height="15.047"/>
	</g>
	<g>
		<rect x="89.225" y="123.063" fill="#9B6648" width="22.301" height="5.887"/>
		<rect x="89.225" y="128.949" fill="#C1B170" width="22.301" height="15.051"/>
	</g>
	<g>
		<rect x="0.037" y="80.453" fill="#9B6648" width="22.299" height="5.887"/>
		<rect x="0.037" y="86.34" fill="#C1B170" width="22.299" height="15.055"/>
	</g>
	<g>
		<rect x="14.693" y="46.492" fill="#9BE08D" width="112.85" height="58.973"/>
		<rect x="121.666" y="81.68" fill="#9BE08D" width="22.334" height="13.563"/>
		<rect y="58.68" fill="#9BE08D" width="22.334" height="22.41"/>
		<rect x="33.502" y="104.094" fill="#9BE08D" width="18.221" height="11.203"/>
		<rect x="89.34" y="103.496" fill="#9BE08D" width="22.334" height="20.055"/>
	</g>
	<g>
		<g>
			<path opacity="0.2" d="M82.955,60.447c-4.098,0-7.918,0.385-11.209,1.045c-1.139-1.098-3.412-1.863-6.064-1.863
				c-3.793,0-6.863,1.545-6.863,3.443c0,1.17,1.162,2.197,2.936,2.82c-0.549,0.654-0.859,1.342-0.859,2.055
				c0,4.154,9.867,7.51,22.061,7.51c12.182,0,22.053-3.355,22.053-7.51C105.008,63.811,95.137,60.447,82.955,60.447z"/>
			<path fill="#725D49" d="M72.295,27.168c0,0-1.672-2.797-1.939-5.549c-0.232-2.299,0.668-4.045,0.375-5.41
				c-0.668-3.115-2.811-3.93-3.75-4.945c-0.947-1.014-3.42-5.354-3.42-5.354l0.635-0.182c0,0,1.344,2.666,3.318,4.916
				c0.711,0.809,3.088,1.656,4.16,5.436c0.477,1.689-0.373,3.416-0.098,5.557c0.275,2.145,2.188,5.109,2.188,5.109
				s-0.092,0.355-0.566,0.486C72.725,27.371,72.295,27.168,72.295,27.168z"/>
			<path fill="#725D49" d="M74.568,70.246c0,0,2.098-7.801,0.891-14.551c-1.012-5.631-4.334-9.186-4.557-12.643
				c-0.506-7.881,4.055-11.279,5.613-14.338c1.563-3.059,4.539-15.088,4.539-15.088h-1.633c0,0-1.412,7.266-4.604,13.975
				c-1.146,2.412-6.248,6.045-6.248,15.787c0,4.35,3.191,7.889,3.979,13.188c0.789,5.303-1.775,13.67-1.775,13.67
				s0.461,0.777,1.686,0.777C73.68,71.023,74.568,70.246,74.568,70.246z"/>
			<linearGradient id="SVGID_1_" gradientUnits="userSpaceOnUse" x1="84.9414" y1="3.0649" x2="84.9414" y2="31.604">
				<stop  offset="0" style="stop-color:#96BF41"/>
				<stop  offset="0.2303" style="stop-color:#93BB3F"/>
				<stop  offset="0.4796" style="stop-color:#8BAE3A"/>
				<stop  offset="0.7378" style="stop-color:#7E9831"/>
				<stop  offset="1" style="stop-color:#6B7A24"/>
			</linearGradient>
			<path fill="url(#SVGID_1_)" d="M69.248,12.688c-2.031,2.82-7.943,9.611-3.516,15.119c4.42,5.512,12.77-1.33,17.49-1.621
				c6.617-0.412,20.045-1.459,21.949-6.994C108.998,8.072,92.996,9.33,88.016,7.902c-4.98-1.432-6.369-6.035-12.66-4.953
				C70.928,3.711,71.281,9.863,69.248,12.688z"/>
		</g>
		<g>
			<path opacity="0.2" d="M33.232,80.605c0-3.047,4.928-5.523,11.016-5.523c6.086,0,11.014,2.477,11.014,5.523
				c0,3.059-4.928,5.523-11.014,5.523C38.16,86.129,33.232,83.664,33.232,80.605z"/>
			<path fill="#725D49" d="M44.002,80.969c-1.721,0-2.383-1.023-2.383-1.023c0-1.785,2.859-15.635,2.318-19.223
				c-0.541-3.586-4.102-10.107-4.377-13.91c-0.189-2.609,0.445-8.523,0.445-8.523h0.654c0,0-0.023,6.258,0.348,8.186
				c0.848,4.371,4.635,8.881,5.418,13.803c0.781,4.924-0.348,19.465-0.348,19.465S45.725,80.969,44.002,80.969z"/>
			<linearGradient id="SVGID_2_" gradientUnits="userSpaceOnUse" x1="39.5586" y1="18.415" x2="39.5586" y2="45.6714">
				<stop  offset="0" style="stop-color:#96BF41"/>
				<stop  offset="0.2303" style="stop-color:#93BB3F"/>
				<stop  offset="0.4796" style="stop-color:#8BAE3A"/>
				<stop  offset="0.7378" style="stop-color:#7E9831"/>
				<stop  offset="1" style="stop-color:#6B7A24"/>
			</linearGradient>
			<path fill="url(#SVGID_2_)" d="M29.008,27.344c-2.031,2.822-5.229,8.314-0.805,13.822c4.426,5.51,8.855,1.592,13.576,1.299
				c6.617-0.41,11.24-7.189,11.357-12.285c0.119-5.094-3.334-8.363-8.314-9.793c-4.98-1.432-7.449-3.549-10.91-1.156
				C30.213,21.787,31.039,24.52,29.008,27.344z"/>
		</g>
		<g>
			<path opacity="0.2" d="M81.174,82.793c0-2.207,3.566-3.992,7.967-3.992c2.994,0,5.568,0.832,6.93,2.055
				c0.842-0.098,1.715-0.164,2.621-0.164c6.088,0,11.016,2.477,11.016,5.523c0,3.055-4.928,5.527-11.016,5.527
				c-5.746,0-10.455-2.203-10.963-5.027C84.004,86.383,81.174,84.762,81.174,82.793z"/>
			<path fill="#725D49" d="M94.473,56.984l0.609-1.023c0,0,0.184,3.742,0.334,4.512c0.26,1.352,0.787,2.418,1.473,3.854
				c1.154-4.424,4.271-8.26,5.045-12.24c0.326-1.688,0.422-8.186,0.422-8.186l1.014,0.148c0,0,0.029,5.717-0.16,8.324
				c-0.275,3.803-3.838,10.326-4.379,13.912c-0.539,3.586,2.318,17.438,2.318,19.219c0,0-0.488,1.074-2.211,1.074
				c-1.721,0-2.074-1.227-2.074-1.227s-1.154-13.281-0.457-18.457c-0.613-1.824-1.881-4.793-1.992-6.311
				C94.32,59.266,94.473,56.984,94.473,56.984z"/>
			
				<linearGradient id="SVGID_3_" gradientUnits="userSpaceOnUse" x1="299.3379" y1="24.0254" x2="299.3379" y2="51.2828" gradientTransform="matrix(-1 0 0 1 402.7188 0)">
				<stop  offset="0" style="stop-color:#96BF41"/>
				<stop  offset="0.2303" style="stop-color:#93BB3F"/>
				<stop  offset="0.4796" style="stop-color:#8BAE3A"/>
				<stop  offset="0.7378" style="stop-color:#7E9831"/>
				<stop  offset="1" style="stop-color:#6B7A24"/>
			</linearGradient>
			<path fill="url(#SVGID_3_)" d="M113.934,32.955c2.031,2.82,5.227,8.313,0.803,13.822c-4.426,5.51-8.855,1.592-13.576,1.299
				c-6.617-0.412-11.24-7.191-11.357-12.285c-0.117-5.096,3.336-8.365,8.316-9.795s7.447-3.547,10.908-1.156
				C112.727,27.396,111.9,30.131,113.934,32.955z"/>
			
				<linearGradient id="SVGID_4_" gradientUnits="userSpaceOnUse" x1="69.4619" y1="48.0728" x2="69.4619" y2="58.2699" gradientTransform="matrix(1 0 0 1 20.7773 0)">
				<stop  offset="0" style="stop-color:#96BF41"/>
				<stop  offset="0.2303" style="stop-color:#93BB3F"/>
				<stop  offset="0.4796" style="stop-color:#8BAE3A"/>
				<stop  offset="0.7378" style="stop-color:#7E9831"/>
				<stop  offset="1" style="stop-color:#6B7A24"/>
			</linearGradient>
			<path fill="url(#SVGID_4_)" d="M87.572,50.1c-2.109,1.115-7.682-0.947-7.664,4.623c0.012,3.311,11.625,3.025,14.016,2.875
				c3.35-0.209,6.584-2.188,6.645-4.768c0.057-2.578-1.033-2.787-3.557-3.51c-2.52-0.721-3.293-1.529-5.164-1.311
				C89.979,48.227,89.682,48.984,87.572,50.1z"/>
		</g>
		<path fill="#725D49" d="M78.145,68.832"/>
		<linearGradient id="SVGID_5_" gradientUnits="userSpaceOnUse" x1="59.3008" y1="0.0869" x2="59.3008" y2="8.9855">
			<stop  offset="0" style="stop-color:#96BF41"/>
			<stop  offset="0.2303" style="stop-color:#93BB3F"/>
			<stop  offset="0.4796" style="stop-color:#8BAE3A"/>
			<stop  offset="0.7378" style="stop-color:#7E9831"/>
			<stop  offset="1" style="stop-color:#6B7A24"/>
		</linearGradient>
		<path fill="url(#SVGID_5_)" d="M65.115,5.025c0,1.389-2.285,3.443-5.107,3.443s-6.521-0.504-6.521-2.844
			c0-3.25,3.699-5.625,6.521-5.625S65.115,2.686,65.115,5.025z"/>
		<g>
			<path opacity="0.2" d="M56.492,87.887c0-1.41,2.275-2.551,5.088-2.551c2.811,0,5.086,1.141,5.086,2.551
				c0,1.414-2.275,2.551-5.086,2.551C58.768,90.438,56.492,89.301,56.492,87.887z"/>
			<path fill="#725D49" d="M60.115,88.145c0,0-0.748-1.316-0.191-3.566c0.465-1.883,1.381-2.996,1.514-4.172
				c0.295-2.684-1.018-4.039-1.586-5.191c-0.574-1.152-1.582-5.484-1.582-5.484l1.229,0.084c0,0,0.457,2.594,1.617,5.1
				c0.418,0.91,1.939,2.375,1.816,5.73c-0.053,1.5-0.922,2.621-1.295,4.398c-0.377,1.777,0.518,3.039,0.518,3.039
				s-0.152,0.586-1.002,0.586C60.301,88.668,60.115,88.145,60.115,88.145z"/>
			
				<linearGradient id="SVGID_6_" gradientUnits="userSpaceOnUse" x1="57.6323" y1="61.7134" x2="57.6323" y2="70.9198" gradientTransform="matrix(1 0.0039 -0.0039 1 1.444 2.6004)">
				<stop  offset="0" style="stop-color:#96BF41"/>
				<stop  offset="0.2303" style="stop-color:#93BB3F"/>
				<stop  offset="0.4796" style="stop-color:#8BAE3A"/>
				<stop  offset="0.7378" style="stop-color:#7E9831"/>
				<stop  offset="1" style="stop-color:#6B7A24"/>
			</linearGradient>
			<path fill="url(#SVGID_6_)" d="M64.832,69.666c-0.008,1.439-2.381,3.553-5.301,3.547c-2.914-0.014-6.742-0.553-6.734-2.971
				c0.016-3.365,3.85-5.803,6.768-5.791C62.488,64.461,64.842,67.246,64.832,69.666z"/>
		</g>
	</g>
</g>
</svg>
