<?xml version="1.0" encoding="utf-8"?>
<!-- Generator: Adobe Illustrator 14.0.0, SVG Export Plug-In . SVG Version: 6.00 Build 43363)  -->
<!DOCTYPE svg PUBLIC "-//W3C//DTD SVG 1.1//EN" "http://www.w3.org/Graphics/SVG/1.1/DTD/svg11.dtd">
<svg version="1.1" id="Calque_1" xmlns="http://www.w3.org/2000/svg" xmlns:xlink="http://www.w3.org/1999/xlink" x="0px" y="0px"
	 width="72px" height="72px" viewBox="0 0 72 72" enable-background="new 0 0 72 72" xml:space="preserve">
<g>
	<g>
		<rect x="60.776" y="47.451" fill="#9B6648" width="11.151" height="2.943"/>
		<rect x="60.776" y="50.395" fill="#C1B170" width="11.151" height="7.525"/>
	</g>
	<g>
		<rect x="7.438" y="52.391" fill="#9B6648" width="56.188" height="2.943"/>
		<rect x="7.438" y="55.334" fill="#C1B170" width="56.188" height="7.525"/>
	</g>
	<g>
		<rect x="16.769" y="57.403" fill="#9B6648" width="9.093" height="2.944"/>
		<rect x="16.769" y="60.348" fill="#C1B170" width="9.093" height="7.524"/>
	</g>
	<g>
		<rect x="44.613" y="61.531" fill="#9B6648" width="11.15" height="2.943"/>
		<rect x="44.613" y="64.475" fill="#C1B170" width="11.15" height="7.525"/>
	</g>
	<g>
		<rect x="0.018" y="40.227" fill="#9B6648" width="11.15" height="2.944"/>
		<rect x="0.018" y="43.171" fill="#C1B170" width="11.15" height="7.525"/>
	</g>
	<g>
		<rect x="7.347" y="23.246" fill="#9BE08D" width="56.424" height="29.488"/>
		<rect x="60.833" y="40.84" fill="#9BE08D" width="11.167" height="6.781"/>
		<rect y="29.34" fill="#9BE08D" width="11.167" height="11.205"/>
		<rect x="16.751" y="52.046" fill="#9BE08D" width="9.11" height="5.602"/>
		<rect x="44.67" y="51.749" fill="#9BE08D" width="11.167" height="10.026"/>
	</g>
	<g>
		<g>
			<path opacity="0.2" d="M41.478,30.223c-2.049,0-3.959,0.193-5.604,0.523c-0.57-0.55-1.707-0.932-3.033-0.932
				c-1.896,0-3.432,0.772-3.432,1.721c0,0.585,0.582,1.099,1.468,1.41c-0.274,0.327-0.429,0.67-0.429,1.027
				c0,2.077,4.934,3.755,11.03,3.755c6.091,0,11.026-1.678,11.026-3.755C52.504,31.905,47.568,30.223,41.478,30.223z"/>
			<path fill="#725D49" d="M36.147,13.584c0,0-0.835-1.398-0.97-2.774c-0.115-1.149,0.334-2.023,0.188-2.705
				C35.031,6.547,33.96,6.14,33.49,5.631c-0.473-0.506-1.709-2.676-1.709-2.676l0.317-0.091c0,0,0.672,1.333,1.659,2.458
				c0.356,0.405,1.544,0.829,2.08,2.718c0.239,0.845-0.186,1.708-0.048,2.779c0.137,1.072,1.093,2.555,1.093,2.555
				s-0.046,0.178-0.283,0.244C36.362,13.685,36.147,13.584,36.147,13.584z"/>
			<path fill="#725D49" d="M37.284,35.123c0,0,1.049-3.9,0.445-7.275c-0.505-2.815-2.167-4.593-2.277-6.321
				c-0.253-3.94,2.026-5.64,2.806-7.17c0.781-1.529,2.27-7.543,2.27-7.543h-0.816c0,0-0.706,3.633-2.302,6.988
				c-0.573,1.205-3.124,3.021-3.124,7.893c0,2.175,1.596,3.944,1.99,6.594c0.394,2.651-0.888,6.834-0.888,6.834
				s0.231,0.389,0.843,0.389C36.84,35.511,37.284,35.123,37.284,35.123z"/>
			<linearGradient id="SVGID_1_" gradientUnits="userSpaceOnUse" x1="42.4707" y1="1.5332" x2="42.4707" y2="15.802">
				<stop  offset="0" style="stop-color:#96BF41"/>
				<stop  offset="0.2303" style="stop-color:#93BB3F"/>
				<stop  offset="0.4796" style="stop-color:#8BAE3A"/>
				<stop  offset="0.7378" style="stop-color:#7E9831"/>
				<stop  offset="1" style="stop-color:#6B7A24"/>
			</linearGradient>
			<path fill="url(#SVGID_1_)" d="M34.624,6.344c-1.015,1.41-3.972,4.806-1.758,7.56c2.21,2.755,6.385-0.665,8.746-0.811
				c3.309-0.206,10.022-0.729,10.975-3.497c1.913-5.56-6.088-4.931-8.578-5.645c-2.49-0.716-3.185-3.018-6.331-2.476
				C35.464,1.855,35.641,4.932,34.624,6.344z"/>
		</g>
		<g>
			<path opacity="0.2" d="M16.617,40.303c0-1.523,2.464-2.762,5.508-2.762c3.042,0,5.507,1.238,5.507,2.762
				c0,1.529-2.464,2.763-5.507,2.763C19.081,43.065,16.617,41.832,16.617,40.303z"/>
			<path fill="#725D49" d="M22.001,40.484c-0.861,0-1.192-0.512-1.192-0.512c0-0.893,1.43-7.817,1.159-9.611
				c-0.271-1.793-2.051-5.054-2.188-6.956c-0.095-1.305,0.223-4.261,0.223-4.261h0.328c0,0-0.013,3.129,0.173,4.092
				c0.424,2.186,2.317,4.44,2.709,6.902c0.391,2.462-0.174,9.732-0.174,9.732S22.862,40.484,22.001,40.484z"/>
			<linearGradient id="SVGID_2_" gradientUnits="userSpaceOnUse" x1="19.7798" y1="9.2075" x2="19.7798" y2="22.836">
				<stop  offset="0" style="stop-color:#96BF41"/>
				<stop  offset="0.2303" style="stop-color:#93BB3F"/>
				<stop  offset="0.4796" style="stop-color:#8BAE3A"/>
				<stop  offset="0.7378" style="stop-color:#7E9831"/>
				<stop  offset="1" style="stop-color:#6B7A24"/>
			</linearGradient>
			<path fill="url(#SVGID_2_)" d="M14.504,13.672c-1.016,1.411-2.614,4.157-0.402,6.912s4.427,0.795,6.788,0.649
				c3.309-0.206,5.62-3.596,5.679-6.143s-1.667-4.182-4.158-4.896c-2.49-0.716-3.725-1.774-5.455-0.578
				C15.106,10.894,15.52,12.26,14.504,13.672z"/>
		</g>
		<g>
			<path opacity="0.2" d="M40.587,41.396c0-1.104,1.782-1.996,3.983-1.996c1.497,0,2.784,0.417,3.464,1.027
				c0.421-0.049,0.857-0.081,1.311-0.081c3.043,0,5.507,1.237,5.507,2.761c0,1.528-2.464,2.765-5.507,2.765
				c-2.873,0-5.228-1.103-5.481-2.514C42.001,43.191,40.587,42.381,40.587,41.396z"/>
			<path fill="#725D49" d="M47.236,28.492l0.305-0.512c0,0,0.092,1.872,0.167,2.256c0.131,0.676,0.394,1.208,0.737,1.926
				c0.578-2.211,2.135-4.129,2.522-6.12c0.163-0.843,0.211-4.092,0.211-4.092l0.507,0.075c0,0,0.014,2.857-0.081,4.162
				c-0.138,1.901-1.918,5.163-2.189,6.957c-0.27,1.793,1.159,8.718,1.159,9.609c0,0-0.245,0.537-1.105,0.537
				c-0.86,0-1.038-0.612-1.038-0.612s-0.577-6.642-0.228-9.229c-0.307-0.912-0.941-2.397-0.996-3.155
				C47.16,29.633,47.236,28.492,47.236,28.492z"/>
			
				<linearGradient id="SVGID_3_" gradientUnits="userSpaceOnUse" x1="279.0283" y1="12.0127" x2="279.0283" y2="25.6411" gradientTransform="matrix(-1 0 0 1 330.7188 0)">
				<stop  offset="0" style="stop-color:#96BF41"/>
				<stop  offset="0.2303" style="stop-color:#93BB3F"/>
				<stop  offset="0.4796" style="stop-color:#8BAE3A"/>
				<stop  offset="0.7378" style="stop-color:#7E9831"/>
				<stop  offset="1" style="stop-color:#6B7A24"/>
			</linearGradient>
			<path fill="url(#SVGID_3_)" d="M56.967,16.478c1.016,1.41,2.614,4.156,0.402,6.911c-2.213,2.755-4.428,0.796-6.789,0.649
				c-3.308-0.206-5.62-3.596-5.679-6.143c-0.058-2.548,1.669-4.183,4.159-4.897c2.49-0.715,3.724-1.773,5.454-0.578
				C56.363,13.698,55.95,15.065,56.967,16.478z"/>
			
				<linearGradient id="SVGID_4_" gradientUnits="userSpaceOnUse" x1="24.3423" y1="24.0366" x2="24.3423" y2="29.1349" gradientTransform="matrix(1 0 0 1 20.7773 0)">
				<stop  offset="0" style="stop-color:#96BF41"/>
				<stop  offset="0.2303" style="stop-color:#93BB3F"/>
				<stop  offset="0.4796" style="stop-color:#8BAE3A"/>
				<stop  offset="0.7378" style="stop-color:#7E9831"/>
				<stop  offset="1" style="stop-color:#6B7A24"/>
			</linearGradient>
			<path fill="url(#SVGID_4_)" d="M43.786,25.05c-1.055,0.557-3.841-0.474-3.832,2.312c0.005,1.655,5.813,1.512,7.007,1.437
				c1.675-0.104,3.292-1.094,3.322-2.384c0.029-1.289-0.517-1.394-1.778-1.755c-1.26-0.36-1.647-0.764-2.582-0.655
				C44.989,24.113,44.841,24.492,43.786,25.05z"/>
		</g>
		<path fill="#725D49" d="M39.072,34.416"/>
		<linearGradient id="SVGID_5_" gradientUnits="userSpaceOnUse" x1="29.6504" y1="0.0435" x2="29.6504" y2="4.4932">
			<stop  offset="0" style="stop-color:#96BF41"/>
			<stop  offset="0.2303" style="stop-color:#93BB3F"/>
			<stop  offset="0.4796" style="stop-color:#8BAE3A"/>
			<stop  offset="0.7378" style="stop-color:#7E9831"/>
			<stop  offset="1" style="stop-color:#6B7A24"/>
		</linearGradient>
		<path fill="url(#SVGID_5_)" d="M32.558,2.513c0,0.695-1.143,1.722-2.554,1.722s-3.261-0.252-3.261-1.422
			c0-1.625,1.85-2.813,3.261-2.813S32.558,1.343,32.558,2.513z"/>
		<g>
			<ellipse opacity="0.2" cx="30.79" cy="43.943" rx="2.544" ry="1.275"/>
			<path fill="#725D49" d="M30.058,44.073c0,0-0.374-0.658-0.096-1.783c0.232-0.941,0.69-1.499,0.757-2.087
				c0.148-1.342-0.508-2.02-0.793-2.596c-0.287-0.576-0.792-2.742-0.792-2.742l0.615,0.042c0,0,0.228,1.297,0.809,2.55
				c0.209,0.454,0.97,1.188,0.908,2.865c-0.027,0.75-0.461,1.311-0.647,2.199c-0.189,0.889,0.259,1.519,0.259,1.519
				s-0.076,0.294-0.501,0.294S30.058,44.073,30.058,44.073z"/>
			
				<linearGradient id="SVGID_6_" gradientUnits="userSpaceOnUse" x1="28.2285" y1="29.4185" x2="28.2285" y2="34.0216" gradientTransform="matrix(1 0.0039 -0.0039 1 1.3036 2.7408)">
				<stop  offset="0" style="stop-color:#96BF41"/>
				<stop  offset="0.2303" style="stop-color:#93BB3F"/>
				<stop  offset="0.4796" style="stop-color:#8BAE3A"/>
				<stop  offset="0.7378" style="stop-color:#7E9831"/>
				<stop  offset="1" style="stop-color:#6B7A24"/>
			</linearGradient>
			<path fill="url(#SVGID_6_)" d="M32.416,34.833c-0.003,0.72-1.19,1.776-2.65,1.773c-1.457-0.007-3.371-0.277-3.367-1.485
				c0.008-1.682,1.925-2.901,3.384-2.896C31.244,32.23,32.42,33.623,32.416,34.833z"/>
		</g>
	</g>
</g>
</svg>
