<?xml version="1.0" encoding="utf-8"?>
<!-- Generator: Adobe Illustrator 14.0.0, SVG Export Plug-In . SVG Version: 6.00 Build 43363)  -->
<!DOCTYPE svg PUBLIC "-//W3C//DTD SVG 1.1//EN" "http://www.w3.org/Graphics/SVG/1.1/DTD/svg11.dtd">
<svg version="1.1" id="Calque_1" xmlns="http://www.w3.org/2000/svg" xmlns:xlink="http://www.w3.org/1999/xlink" x="0px" y="0px"
	 width="36px" height="36px" viewBox="0 0 36 36" enable-background="new 0 0 36 36" xml:space="preserve">
<g>
	<g>
		<rect x="30.388" y="23.726" fill="#9B6648" width="5.576" height="1.472"/>
		<rect x="30.388" y="25.197" fill="#C1B170" width="5.576" height="3.763"/>
	</g>
	<g>
		<rect x="3.719" y="26.195" fill="#9B6648" width="28.094" height="1.472"/>
		<rect x="3.719" y="27.667" fill="#C1B170" width="28.094" height="3.763"/>
	</g>
	<g>
		<rect x="8.384" y="28.701" fill="#9B6648" width="4.546" height="1.473"/>
		<rect x="8.384" y="30.174" fill="#C1B170" width="4.546" height="3.762"/>
	</g>
	<g>
		<rect x="22.306" y="30.766" fill="#9B6648" width="5.575" height="1.472"/>
		<rect x="22.306" y="32.237" fill="#C1B170" width="5.575" height="3.763"/>
	</g>
	<g>
		<rect x="0.009" y="20.113" fill="#9B6648" width="5.575" height="1.472"/>
		<rect x="0.009" y="21.585" fill="#C1B170" width="5.575" height="3.764"/>
	</g>
	<g>
		<rect x="3.673" y="11.623" fill="#9BE08D" width="28.212" height="14.743"/>
		<rect x="30.417" y="20.42" fill="#9BE08D" width="5.583" height="3.391"/>
		<rect y="14.67" fill="#9BE08D" width="5.583" height="5.603"/>
		<rect x="8.375" y="26.023" fill="#9BE08D" width="4.555" height="2.801"/>
		<rect x="22.335" y="25.874" fill="#9BE08D" width="5.583" height="5.014"/>
	</g>
	<g>
		<g>
			<path opacity="0.2" d="M20.739,15.112c-1.024,0-1.979,0.096-2.802,0.261c-0.285-0.274-0.853-0.466-1.516-0.466
				c-0.948,0-1.716,0.386-1.716,0.861c0,0.292,0.291,0.549,0.734,0.705c-0.137,0.164-0.215,0.335-0.215,0.514
				c0,1.039,2.467,1.877,5.515,1.877c3.045,0,5.513-0.839,5.513-1.877C26.252,15.953,23.784,15.112,20.739,15.112z"/>
			<path fill="#725D49" d="M18.074,6.792c0,0-0.418-0.699-0.485-1.387c-0.058-0.575,0.167-1.011,0.094-1.353
				c-0.167-0.779-0.703-0.982-0.938-1.236c-0.237-0.253-0.855-1.338-0.855-1.338l0.159-0.045c0,0,0.336,0.667,0.83,1.229
				c0.178,0.202,0.772,0.414,1.04,1.359c0.119,0.422-0.093,0.854-0.024,1.389c0.069,0.536,0.547,1.277,0.547,1.277
				s-0.023,0.089-0.142,0.122C18.181,6.843,18.074,6.792,18.074,6.792z"/>
			<path fill="#725D49" d="M18.642,17.562c0,0,0.524-1.95,0.223-3.638c-0.253-1.408-1.083-2.296-1.139-3.161
				c-0.126-1.97,1.014-2.82,1.403-3.584c0.391-0.765,1.135-3.772,1.135-3.772h-0.408c0,0-0.353,1.816-1.151,3.494
				c-0.287,0.603-1.562,1.511-1.562,3.947c0,1.087,0.798,1.972,0.995,3.297c0.197,1.326-0.444,3.417-0.444,3.417
				s0.115,0.194,0.421,0.194C18.42,17.756,18.642,17.562,18.642,17.562z"/>
			<linearGradient id="SVGID_1_" gradientUnits="userSpaceOnUse" x1="21.2354" y1="0.7666" x2="21.2354" y2="7.9012">
				<stop  offset="0" style="stop-color:#96BF41"/>
				<stop  offset="0.2303" style="stop-color:#93BB3F"/>
				<stop  offset="0.4796" style="stop-color:#8BAE3A"/>
				<stop  offset="0.7378" style="stop-color:#7E9831"/>
				<stop  offset="1" style="stop-color:#6B7A24"/>
			</linearGradient>
			<path fill="url(#SVGID_1_)" d="M17.312,3.172c-0.508,0.705-1.986,2.403-0.879,3.78c1.105,1.378,3.192-0.333,4.373-0.405
				c1.654-0.103,5.011-0.365,5.487-1.749c0.957-2.78-3.044-2.465-4.289-2.822c-1.245-0.358-1.592-1.509-3.165-1.238
				C17.732,0.928,17.82,2.466,17.312,3.172z"/>
		</g>
		<g>
			<ellipse opacity="0.2" cx="11.062" cy="20.151" rx="2.754" ry="1.381"/>
			<path fill="#725D49" d="M11,20.242c-0.43,0-0.596-0.256-0.596-0.256c0-0.446,0.715-3.909,0.58-4.806
				c-0.135-0.896-1.025-2.527-1.094-3.478c-0.047-0.652,0.111-2.131,0.111-2.131h0.164c0,0-0.006,1.564,0.087,2.046
				c0.212,1.093,1.159,2.22,1.354,3.451c0.195,1.231-0.087,4.866-0.087,4.866S11.431,20.242,11,20.242z"/>
			<linearGradient id="SVGID_2_" gradientUnits="userSpaceOnUse" x1="9.8896" y1="4.6035" x2="9.8896" y2="11.4175">
				<stop  offset="0" style="stop-color:#96BF41"/>
				<stop  offset="0.2303" style="stop-color:#93BB3F"/>
				<stop  offset="0.4796" style="stop-color:#8BAE3A"/>
				<stop  offset="0.7378" style="stop-color:#7E9831"/>
				<stop  offset="1" style="stop-color:#6B7A24"/>
			</linearGradient>
			<path fill="url(#SVGID_2_)" d="M7.252,6.836c-0.508,0.706-1.307,2.079-0.201,3.456c1.106,1.377,2.214,0.398,3.394,0.325
				c1.654-0.103,2.81-1.797,2.839-3.071c0.03-1.273-0.833-2.091-2.079-2.448C9.96,4.739,9.343,4.209,8.478,4.808
				C7.553,5.447,7.76,6.13,7.252,6.836z"/>
		</g>
		<g>
			<path opacity="0.2" d="M20.293,20.698c0-0.552,0.892-0.998,1.992-0.998c0.749,0,1.392,0.208,1.732,0.514
				c0.21-0.024,0.429-0.041,0.655-0.041c1.522,0,2.754,0.619,2.754,1.381c0,0.764-1.232,1.382-2.754,1.382
				c-1.437,0-2.614-0.551-2.741-1.257C21.001,21.596,20.293,21.19,20.293,20.698z"/>
			<path fill="#725D49" d="M23.618,14.246l0.152-0.256c0,0,0.046,0.936,0.083,1.128c0.065,0.338,0.197,0.604,0.368,0.963
				c0.289-1.106,1.068-2.065,1.261-3.06c0.082-0.422,0.105-2.046,0.105-2.046l0.253,0.037c0,0,0.007,1.429-0.04,2.081
				c-0.069,0.951-0.959,2.582-1.095,3.478c-0.135,0.896,0.58,4.359,0.58,4.805c0,0-0.122,0.269-0.553,0.269
				c-0.43,0-0.519-0.307-0.519-0.307s-0.289-3.32-0.114-4.614c-0.153-0.456-0.47-1.198-0.498-1.578
				C23.58,14.816,23.618,14.246,23.618,14.246z"/>
			
				<linearGradient id="SVGID_3_" gradientUnits="userSpaceOnUse" x1="268.874" y1="6.0063" x2="268.874" y2="12.8203" gradientTransform="matrix(-1 0 0 1 294.7188 0)">
				<stop  offset="0" style="stop-color:#96BF41"/>
				<stop  offset="0.2303" style="stop-color:#93BB3F"/>
				<stop  offset="0.4796" style="stop-color:#8BAE3A"/>
				<stop  offset="0.7378" style="stop-color:#7E9831"/>
				<stop  offset="1" style="stop-color:#6B7A24"/>
			</linearGradient>
			<path fill="url(#SVGID_3_)" d="M28.483,8.239c0.508,0.705,1.307,2.078,0.201,3.456c-1.106,1.377-2.214,0.398-3.394,0.325
				c-1.654-0.103-2.81-1.798-2.839-3.071c-0.029-1.274,0.834-2.091,2.079-2.449s1.862-0.887,2.727-0.289
				C28.182,6.849,27.975,7.533,28.483,8.239z"/>
			
				<linearGradient id="SVGID_4_" gradientUnits="userSpaceOnUse" x1="1.7827" y1="12.0181" x2="1.7827" y2="14.5675" gradientTransform="matrix(1 0 0 1 20.7773 0)">
				<stop  offset="0" style="stop-color:#96BF41"/>
				<stop  offset="0.2303" style="stop-color:#93BB3F"/>
				<stop  offset="0.4796" style="stop-color:#8BAE3A"/>
				<stop  offset="0.7378" style="stop-color:#7E9831"/>
				<stop  offset="1" style="stop-color:#6B7A24"/>
			</linearGradient>
			<path fill="url(#SVGID_4_)" d="M21.893,12.525c-0.527,0.279-1.92-0.237-1.916,1.156c0.003,0.828,2.906,0.756,3.504,0.719
				c0.837-0.052,1.646-0.547,1.661-1.192c0.014-0.645-0.258-0.697-0.889-0.877c-0.63-0.18-0.823-0.382-1.291-0.328
				C22.495,12.057,22.42,12.246,21.893,12.525z"/>
		</g>
		<path fill="#725D49" d="M19.536,17.208"/>
		<linearGradient id="SVGID_5_" gradientUnits="userSpaceOnUse" x1="14.8252" y1="0.022" x2="14.8252" y2="2.2466">
			<stop  offset="0" style="stop-color:#96BF41"/>
			<stop  offset="0.2303" style="stop-color:#93BB3F"/>
			<stop  offset="0.4796" style="stop-color:#8BAE3A"/>
			<stop  offset="0.7378" style="stop-color:#7E9831"/>
			<stop  offset="1" style="stop-color:#6B7A24"/>
		</linearGradient>
		<path fill="url(#SVGID_5_)" d="M16.279,1.256c0,0.347-0.571,0.861-1.277,0.861s-1.63-0.126-1.63-0.711
			c0-0.813,0.925-1.406,1.63-1.406S16.279,0.671,16.279,1.256z"/>
		<g>
			<ellipse opacity="0.2" cx="15.395" cy="21.972" rx="1.272" ry="0.638"/>
			<path fill="#725D49" d="M15.029,22.036c0,0-0.187-0.329-0.048-0.892c0.116-0.471,0.345-0.749,0.378-1.043
				c0.074-0.671-0.254-1.01-0.396-1.298c-0.144-0.288-0.396-1.371-0.396-1.371l0.307,0.021c0,0,0.114,0.648,0.404,1.275
				c0.104,0.228,0.485,0.594,0.454,1.433c-0.013,0.375-0.23,0.655-0.324,1.1c-0.094,0.444,0.129,0.76,0.129,0.76
				s-0.038,0.146-0.25,0.146C15.075,22.167,15.029,22.036,15.029,22.036z"/>
			
				<linearGradient id="SVGID_6_" gradientUnits="userSpaceOnUse" x1="13.5269" y1="13.271" x2="13.5269" y2="15.5726" gradientTransform="matrix(1 0.0039 -0.0039 1 1.2334 2.811)">
				<stop  offset="0" style="stop-color:#96BF41"/>
				<stop  offset="0.2303" style="stop-color:#93BB3F"/>
				<stop  offset="0.4796" style="stop-color:#8BAE3A"/>
				<stop  offset="0.7378" style="stop-color:#7E9831"/>
				<stop  offset="1" style="stop-color:#6B7A24"/>
			</linearGradient>
			<path fill="url(#SVGID_6_)" d="M16.208,17.417c-0.002,0.36-0.595,0.888-1.325,0.887c-0.729-0.003-1.686-0.138-1.684-0.743
				c0.004-0.841,0.962-1.451,1.692-1.448C15.622,16.115,16.21,16.812,16.208,17.417z"/>
		</g>
	</g>
</g>
</svg>
