<?xml version="1.0" encoding="utf-8"?>
<!-- Generator: Adobe Illustrator 14.0.0, SVG Export Plug-In . SVG Version: 6.00 Build 43363)  -->
<!DOCTYPE svg PUBLIC "-//W3C//DTD SVG 1.1//EN" "http://www.w3.org/Graphics/SVG/1.1/DTD/svg11.dtd">
<svg version="1.1" id="Calque_1" xmlns="http://www.w3.org/2000/svg" xmlns:xlink="http://www.w3.org/1999/xlink" x="0px" y="0px"
	 width="48px" height="48px" viewBox="0 0 48 48" enable-background="new 0 0 48 48" xml:space="preserve">
<g>
	<g>
		<rect x="40.517" y="31.634" fill="#9B6648" width="7.435" height="1.963"/>
		<rect x="40.517" y="33.597" fill="#C1B170" width="7.435" height="5.017"/>
	</g>
	<g>
		<rect x="4.958" y="34.927" fill="#9B6648" width="37.458" height="1.963"/>
		<rect x="4.958" y="36.89" fill="#C1B170" width="37.458" height="5.017"/>
	</g>
	<g>
		<rect x="11.179" y="38.269" fill="#9B6648" width="6.062" height="1.963"/>
		<rect x="11.179" y="40.231" fill="#C1B170" width="6.062" height="5.017"/>
	</g>
	<g>
		<rect x="29.742" y="41.021" fill="#9B6648" width="7.434" height="1.963"/>
		<rect x="29.742" y="42.983" fill="#C1B170" width="7.434" height="5.017"/>
	</g>
	<g>
		<rect x="0.012" y="26.817" fill="#9B6648" width="7.433" height="1.963"/>
		<rect x="0.012" y="28.78" fill="#C1B170" width="7.433" height="5.018"/>
	</g>
	<g>
		<rect x="4.898" y="15.497" fill="#9BE08D" width="37.616" height="19.658"/>
		<rect x="40.555" y="27.227" fill="#9BE08D" width="7.445" height="4.521"/>
		<rect y="19.56" fill="#9BE08D" width="7.445" height="7.47"/>
		<rect x="11.167" y="34.697" fill="#9BE08D" width="6.073" height="3.734"/>
		<rect x="29.78" y="34.499" fill="#9BE08D" width="7.445" height="6.685"/>
	</g>
	<g>
		<g>
			<path opacity="0.2" d="M27.652,20.149c-1.366,0-2.64,0.128-3.736,0.349c-0.38-0.366-1.138-0.621-2.021-0.621
				c-1.265,0-2.288,0.515-2.288,1.147c0,0.39,0.388,0.732,0.979,0.94c-0.183,0.218-0.286,0.447-0.286,0.685
				c0,1.385,3.289,2.503,7.354,2.503c4.061,0,7.351-1.119,7.351-2.503C35.002,21.27,31.712,20.149,27.652,20.149z"/>
			<path fill="#725D49" d="M24.098,9.056c0,0-0.557-0.933-0.646-1.85c-0.077-0.766,0.223-1.349,0.125-1.804
				c-0.223-1.038-0.937-1.31-1.25-1.648c-0.315-0.338-1.14-1.784-1.14-1.784l0.211-0.061c0,0,0.448,0.888,1.106,1.638
				c0.237,0.27,1.03,0.552,1.387,1.812c0.159,0.563-0.124,1.139-0.032,1.853c0.092,0.715,0.729,1.703,0.729,1.703
				s-0.031,0.118-0.189,0.162C24.242,9.124,24.098,9.056,24.098,9.056z"/>
			<path fill="#725D49" d="M24.856,23.415c0,0,0.699-2.6,0.297-4.85c-0.337-1.877-1.444-3.062-1.519-4.214
				c-0.169-2.627,1.351-3.76,1.871-4.78c0.521-1.019,1.513-5.029,1.513-5.029h-0.544c0,0-0.471,2.422-1.535,4.658
				c-0.382,0.804-2.083,2.015-2.083,5.262c0,1.45,1.064,2.629,1.326,4.396c0.263,1.767-0.592,4.556-0.592,4.556
				s0.154,0.259,0.562,0.259C24.56,23.674,24.856,23.415,24.856,23.415z"/>
			<linearGradient id="SVGID_1_" gradientUnits="userSpaceOnUse" x1="28.314" y1="1.022" x2="28.314" y2="10.5346">
				<stop  offset="0" style="stop-color:#96BF41"/>
				<stop  offset="0.2303" style="stop-color:#93BB3F"/>
				<stop  offset="0.4796" style="stop-color:#8BAE3A"/>
				<stop  offset="0.7378" style="stop-color:#7E9831"/>
				<stop  offset="1" style="stop-color:#6B7A24"/>
			</linearGradient>
			<path fill="url(#SVGID_1_)" d="M23.083,4.229c-0.677,0.94-2.647,3.204-1.172,5.04c1.473,1.837,4.257-0.443,5.83-0.541
				c2.206-0.137,6.682-0.486,7.316-2.331c1.275-3.707-4.059-3.288-5.719-3.763c-1.66-0.478-2.123-2.012-4.22-1.651
				C23.643,1.237,23.76,3.288,23.083,4.229z"/>
		</g>
		<g>
			<path opacity="0.2" d="M11.078,26.868c0-1.016,1.643-1.841,3.672-1.841c2.028,0,3.671,0.825,3.671,1.841
				c0,1.02-1.643,1.842-3.671,1.842C12.72,28.71,11.078,27.888,11.078,26.868z"/>
			<path fill="#725D49" d="M14.667,26.989c-0.574,0-0.794-0.341-0.794-0.341c0-0.595,0.953-5.211,0.773-6.407
				c-0.181-1.195-1.367-3.37-1.459-4.637c-0.063-0.87,0.148-2.841,0.148-2.841h0.218c0,0-0.008,2.086,0.116,2.729
				c0.282,1.457,1.545,2.96,1.806,4.601c0.26,1.641-0.116,6.488-0.116,6.488S15.242,26.989,14.667,26.989z"/>
			<linearGradient id="SVGID_2_" gradientUnits="userSpaceOnUse" x1="13.186" y1="6.1382" x2="13.186" y2="15.224">
				<stop  offset="0" style="stop-color:#96BF41"/>
				<stop  offset="0.2303" style="stop-color:#93BB3F"/>
				<stop  offset="0.4796" style="stop-color:#8BAE3A"/>
				<stop  offset="0.7378" style="stop-color:#7E9831"/>
				<stop  offset="1" style="stop-color:#6B7A24"/>
			</linearGradient>
			<path fill="url(#SVGID_2_)" d="M9.669,9.115c-0.677,0.94-1.743,2.771-0.268,4.607c1.475,1.836,2.952,0.53,4.525,0.433
				c2.206-0.137,3.747-2.397,3.786-4.095c0.04-1.698-1.111-2.788-2.771-3.265c-1.66-0.477-2.483-1.183-3.637-0.385
				C10.071,7.262,10.347,8.173,9.669,9.115z"/>
		</g>
		<g>
			<path opacity="0.2" d="M27.058,27.598c0-0.735,1.188-1.331,2.656-1.331c0.998,0,1.856,0.278,2.31,0.686
				c0.281-0.033,0.572-0.055,0.874-0.055c2.029,0,3.672,0.825,3.672,1.841c0,1.019-1.643,1.843-3.672,1.843
				c-1.915,0-3.485-0.734-3.654-1.676C28.001,28.794,27.058,28.254,27.058,27.598z"/>
			<path fill="#725D49" d="M31.491,18.995l0.203-0.341c0,0,0.062,1.248,0.111,1.504c0.087,0.451,0.263,0.806,0.491,1.284
				c0.385-1.475,1.423-2.753,1.682-4.08c0.108-0.563,0.141-2.729,0.141-2.729l0.338,0.05c0,0,0.01,1.905-0.054,2.774
				c-0.092,1.268-1.279,3.442-1.459,4.638c-0.18,1.195,0.773,5.812,0.773,6.406c0,0-0.163,0.358-0.737,0.358
				c-0.573,0-0.691-0.408-0.691-0.408s-0.385-4.428-0.152-6.153c-0.205-0.608-0.627-1.598-0.664-2.104
				C31.44,19.755,31.491,18.995,31.491,18.995z"/>
			
				<linearGradient id="SVGID_3_" gradientUnits="userSpaceOnUse" x1="272.2588" y1="8.0083" x2="272.2588" y2="17.0941" gradientTransform="matrix(-1 0 0 1 306.7188 0)">
				<stop  offset="0" style="stop-color:#96BF41"/>
				<stop  offset="0.2303" style="stop-color:#93BB3F"/>
				<stop  offset="0.4796" style="stop-color:#8BAE3A"/>
				<stop  offset="0.7378" style="stop-color:#7E9831"/>
				<stop  offset="1" style="stop-color:#6B7A24"/>
			</linearGradient>
			<path fill="url(#SVGID_3_)" d="M37.978,10.985c0.677,0.94,1.742,2.771,0.268,4.607c-1.476,1.837-2.952,0.531-4.526,0.433
				c-2.205-0.137-3.747-2.397-3.786-4.095c-0.039-1.699,1.112-2.789,2.772-3.265c1.66-0.477,2.482-1.183,3.636-0.385
				C37.576,9.132,37.3,10.043,37.978,10.985z"/>
			
				<linearGradient id="SVGID_4_" gradientUnits="userSpaceOnUse" x1="9.3022" y1="16.0244" x2="9.3022" y2="19.4234" gradientTransform="matrix(1 0 0 1 20.7773 0)">
				<stop  offset="0" style="stop-color:#96BF41"/>
				<stop  offset="0.2303" style="stop-color:#93BB3F"/>
				<stop  offset="0.4796" style="stop-color:#8BAE3A"/>
				<stop  offset="0.7378" style="stop-color:#7E9831"/>
				<stop  offset="1" style="stop-color:#6B7A24"/>
			</linearGradient>
			<path fill="url(#SVGID_4_)" d="M29.191,16.7c-0.703,0.372-2.561-0.315-2.555,1.542c0.004,1.103,3.875,1.008,4.672,0.958
				c1.116-0.07,2.194-0.729,2.215-1.589c0.019-0.859-0.345-0.929-1.186-1.17c-0.84-0.24-1.098-0.51-1.721-0.437
				C29.993,16.075,29.894,16.328,29.191,16.7z"/>
		</g>
		<path fill="#725D49" d="M26.048,22.944"/>
		<linearGradient id="SVGID_5_" gradientUnits="userSpaceOnUse" x1="19.7671" y1="0.0288" x2="19.7671" y2="2.9953">
			<stop  offset="0" style="stop-color:#96BF41"/>
			<stop  offset="0.2303" style="stop-color:#93BB3F"/>
			<stop  offset="0.4796" style="stop-color:#8BAE3A"/>
			<stop  offset="0.7378" style="stop-color:#7E9831"/>
			<stop  offset="1" style="stop-color:#6B7A24"/>
		</linearGradient>
		<path fill="url(#SVGID_5_)" d="M21.705,1.675c0,0.463-0.762,1.148-1.703,1.148c-0.94,0-2.174-0.168-2.174-0.948
			C17.829,0.792,19.062,0,20.002,0C20.943,0,21.705,0.895,21.705,1.675z"/>
		<g>
			<ellipse opacity="0.2" cx="20.526" cy="29.296" rx="1.696" ry="0.851"/>
			<path fill="#725D49" d="M20.039,29.382c0,0-0.25-0.438-0.064-1.188c0.155-0.628,0.46-0.999,0.504-1.392
				c0.099-0.895-0.339-1.346-0.528-1.73c-0.191-0.384-0.528-1.828-0.528-1.828l0.41,0.028c0,0,0.152,0.865,0.539,1.7
				c0.14,0.303,0.646,0.792,0.605,1.911c-0.018,0.5-0.307,0.873-0.431,1.466c-0.126,0.593,0.172,1.013,0.172,1.013
				s-0.051,0.195-0.334,0.195C20.101,29.556,20.039,29.382,20.039,29.382z"/>
			
				<linearGradient id="SVGID_6_" gradientUnits="userSpaceOnUse" x1="18.4277" y1="18.6533" x2="18.4277" y2="21.7219" gradientTransform="matrix(1 0.0039 -0.0039 1 1.2568 2.7876)">
				<stop  offset="0" style="stop-color:#96BF41"/>
				<stop  offset="0.2303" style="stop-color:#93BB3F"/>
				<stop  offset="0.4796" style="stop-color:#8BAE3A"/>
				<stop  offset="0.7378" style="stop-color:#7E9831"/>
				<stop  offset="1" style="stop-color:#6B7A24"/>
			</linearGradient>
			<path fill="url(#SVGID_6_)" d="M21.611,23.222c-0.002,0.479-0.794,1.184-1.767,1.182c-0.971-0.005-2.247-0.185-2.245-0.99
				c0.005-1.122,1.283-1.934,2.256-1.93C20.829,21.487,21.614,22.416,21.611,23.222z"/>
		</g>
	</g>
</g>
</svg>
